<?xml version="1.0" encoding="UTF-8"?>
<svg id="_レイヤー_1" data-name="レイヤー_1" xmlns="http://www.w3.org/2000/svg" version="1.1" viewBox="0 0 32 32">
  <!-- Generator: Adobe Illustrator 29.7.1, SVG Export Plug-In . SVG Version: 2.1.1 Build 8)  -->
  <defs>
    <style>
      .st0 {
        fill: #0d1e28;
      }

      .st1 {
        fill: #fdfefe;
      }
    </style>
  </defs>
  <path class="st0" d="M6.7,4.2s.8,0,.8,0c0,0-.1-.9,0-.9h.7c0,.9-.2,1,.8.9v3.2c.2,0,.8,0,.8,0s0,.6,0,.8h4.1c0-.2,0-.8,0-.8s.6,0,.8,0v-1.6c.2,0,.8,0,.8,0s0-.8,0-.8.8,0,.8,0,0-.6,0-.8h.8c0,.2,0,.8,0,.8s.6,0,.8,0v6.6c.2,0,.8,0,.8,0s0,.8,0,.8.8,0,.9,0v1.6s-.9,0-.9,0v.7s.9,0,.9,0v1.7s.8,0,.8,0v1.6s-.8,0-.8,0v1.6c.2,0,.8,0,.8,0s0,.6,0,.8h.8c0-.2,0-.8,0-.8s.8,0,.8,0,0-.6,0-.8h1.6v1.6h.8c0-.2,0-.8,0-.8s.8,0,.8,0,0-.6,0-.8h1.7s0-.8,0-.8h1.6v1.6h.8c0-.2,0-.8,0-.8s.8,0,.8,0,0-.6,0-.8h1.6v2.4s-.8,0-.8,0v1.6s-.8,0-.8,0v1.7c-.2,0-.8,0-.8,0s0,.8,0,.8-.8,0-.8,0,0,.6,0,.8h-1.6s0,.8,0,.8h-2.5s0,.8,0,.8h-5.8s0-.8,0-.8h-1.6s0,.8,0,.8h-1.6c0,.2,0,.8,0,.8s-.8,0-.8,0,0,.6,0,.8h-2.5c0-.2,0-.8,0-.8s-.8,0-.8,0,0-.6,0-.8h-1.6c0,.2,0,.8,0,.8s-.8,0-.8,0,0,.6,0,.8h-2.4c0-.2,0-.8,0-.8s-.9,0-.9,0,0-.8,0-.8-.8,0-.8,0,0-.6,0-.8h-1.6s0,.8,0,.8H.9c0-1,0-.8-.9-.8v-.8c.2,0,.9,0,.9,0s0-.8,0-.8.6,0,.8,0v-1.6s-.8,0-.8,0v-1.7S0,21.4,0,21.4v-1.6c.2,0,.9,0,.9,0s0-.8,0-.8.6,0,.8,0v-.8s-.8,0-.8,0v-1.6c.2,0,.8,0,.8,0s0-.9,0-.9.6,0,.8,0v-.8s-.8,0-.8,0v-1.6c.2,0,.8,0,.8,0s0-.8,0-.8.8,0,.8,0,0-.8,0-.8.6,0,.8,0v-1.6s.8,0,.8,0v-1.7s.8,0,.8,0v-2.4s.9,0,.9,0c0-.2,0-1.6,0-1.6ZM8.2,12.4h-.8v1.6h.8v-1.6ZM11.4,12.4h-.8v1.6h.8v-1.6Z"/>
  <rect class="st1" x="7.4" y="12.4" width=".8" height="1.6"/>
  <rect class="st1" x="10.6" y="12.4" width=".8" height="1.6"/>
</svg>