<?xml version="1.0" encoding="UTF-8"?>
<svg id="_レイヤー_1" data-name="レイヤー_1" xmlns="http://www.w3.org/2000/svg" version="1.1" viewBox="0 0 300 60">
  <!-- Generator: Adobe Illustrator 29.7.1, SVG Export Plug-In . SVG Version: 2.1.1 Build 8)  -->
  <defs>
    <style>
      .st0 {
        fill: #0d1e28;
      }

      .st1 {
        fill: #fdfefe;
      }
    </style>
  </defs>
  <g>
    <path class="st0" d="M13.1,6.8c0,0,1.5,0,1.6,0,.1-.1-.2-1.8.1-1.8h1.5c0,1.8-.4,2,1.6,1.8v6.3c.3,0,1.5,0,1.6,0s0,1.3,0,1.6h8.1c0-.3,0-1.5,0-1.6s1.3,0,1.6,0v-3.2c.3,0,1.5,0,1.6,0s0-1.5,0-1.6,1.5,0,1.6,0,0-1.3,0-1.6h1.6c0,.3,0,1.5,0,1.6s1.3,0,1.6,0v12.9c.3,0,1.5,0,1.6,0s0,1.5,0,1.6,1.5,0,1.8,0v3.2c0,0-1.8-.2-1.8.1v1.5s1.8,0,1.8,0v3.4c0,0,1.6,0,1.6,0v3.2c0,0-1.6,0-1.6,0v3.2c.3,0,1.5,0,1.6,0s0,1.3,0,1.6h1.6c0-.3,0-1.5,0-1.6s1.5,0,1.6,0,0-1.3,0-1.6h3.2v3.2h1.6c0-.3,0-1.5,0-1.6s1.5,0,1.6,0,0-1.3,0-1.6h3.4c0,0,0-1.6,0-1.6h3.2v3.2h1.6c0-.3,0-1.5,0-1.6s1.5,0,1.6,0,0-1.3,0-1.6h3.2v4.7c0,0-1.6,0-1.6,0v3.2c0,0-1.6,0-1.6,0v3.4c-.3,0-1.5,0-1.6,0s0,1.5,0,1.6-1.5,0-1.6,0,0,1.3,0,1.6h-3.2c0,0,0,1.6,0,1.6h-5c0,0,0,1.6,0,1.6h-11.3c0,0,0-1.6,0-1.6h-3.2c0,0,0,1.6,0,1.6h-3.2c0,.3,0,1.5,0,1.6s-1.5,0-1.6,0,0,1.3,0,1.6h-5c0-.3,0-1.5,0-1.6s-1.5,0-1.6,0,0-1.3,0-1.6h-3.2c0,.3,0,1.5,0,1.6s-1.5,0-1.6,0,0,1.3,0,1.6h-4.7c0-.3,0-1.5,0-1.6s-1.7,0-1.8,0,0-1.5,0-1.6-1.5,0-1.6,0,0-1.3,0-1.6h-3.2c0,0,0,1.6,0,1.6H1.8c.2-2,0-1.6-1.8-1.6v-1.6c.3,0,1.7,0,1.8,0s0-1.5,0-1.6,1.3,0,1.6,0v-3.2c0,0-1.6,0-1.6,0v-3.4c0,0-1.8,0-1.8,0v-3.2c.3,0,1.7,0,1.8,0s0-1.5,0-1.6,1.3,0,1.6,0v-1.6s-1.6,0-1.6,0v-3.2c.3,0,1.5,0,1.6,0s0-1.7,0-1.8,1.3,0,1.6,0v-1.6s-1.6,0-1.6,0v-3.2c.3,0,1.5,0,1.6,0s0-1.5,0-1.6,1.5,0,1.6,0,0-1.5,0-1.6,1.3,0,1.6,0v-3.2c0,0,1.6,0,1.6,0v-3.4c0,0,1.6,0,1.6,0v-4.7c0,0,1.8,0,1.8,0,0-.5-.1-3.1,0-3.2ZM16,22.9h-1.6v3.2h1.6v-3.2ZM22.4,22.9h-1.6v3.2h1.6v-3.2Z"/>
    <rect class="st1" x="14.5" y="22.9" width="1.6" height="3.2"/>
    <rect class="st1" x="20.8" y="22.9" width="1.6" height="3.2"/>
  </g>
  <g>
    <path d="M74.4,39.5h-3.2v-19.1h3.2v-3.2h12.7v3.2h3.2v6.4h-6.4v-3.2h-6.4v12.7h6.4v-3.2h6.4v6.4h-3.2v3.2h-12.7v-3.2Z"/>
    <path d="M99.8,39.5h-3.2v-12.7h3.2v-3.2h12.7v3.2h3.2v12.7h-3.2v3.2h-12.7v-3.2ZM109.4,36.3v-6.4h-6.4v6.4h6.4Z"/>
    <path d="M125.2,39.5h-3.2v-12.7h3.2v-3.2h6.4v3.2h3.2v-9.5h6.4v25.4h-15.9v-3.2ZM134.8,36.3v-3.2h-3.2v-3.2h-3.2v6.4h6.4Z"/>
    <path d="M150.7,39.5h-3.2v-12.7h3.2v-3.2h12.7v3.2h3.2v9.5h-12.7v3.2h9.5v3.2h-12.7v-3.2ZM160.2,33.2v-3.2h-6.4v3.2h6.4Z"/>
    <path d="M185.6,39.5h-3.2v-6.4h6.4v3.2h6.4v-3.2h-6.4v-3.2h-6.4v-9.5h3.2v-3.2h12.7v3.2h3.2v6.4h-6.4v-3.2h-6.4v3.2h6.4v3.2h6.4v9.5h-3.2v3.2h-12.7v-3.2Z"/>
    <path d="M214.2,39.5h-3.2v-9.5h-3.2v-6.4h3.2v-3.2h6.4v3.2h6.4v6.4h-6.4v9.5h3.2v-3.2h3.2v6.4h-9.5v-3.2Z"/>
    <path d="M233.3,39.5h-3.2v-12.7h3.2v-3.2h12.7v3.2h3.2v12.7h-3.2v3.2h-12.7v-3.2ZM242.8,36.3v-6.4h-6.4v6.4h6.4Z"/>
    <path d="M258.7,39.5h-3.2v-12.7h3.2v-3.2h15.9v6.4h-12.7v6.4h12.7v3.2h-3.2v3.2h-12.7v-3.2Z"/>
    <path d="M280.9,17.3h6.4v12.7h3.2v-3.2h3.2v-3.2h6.4v6.4h-6.4v3.2h-3.2v3.2h-3.2v6.4h-6.4v-25.4ZM290.5,36.3h6.4v3.2h3.2v3.2h-9.5v-6.4Z"/>
  </g>
</svg>